<mxfile host="app.diagrams.net" agent="Mozilla/5.0 (Windows NT 10.0; Win64; x64; rv:130.0) Gecko/20100101 Firefox/130.0" version="24.7.16">
  <diagram name="Page-1" id="XetriPzsy4HdsD7IfupF">
    <mxGraphModel dx="1500" dy="796" grid="1" gridSize="10" guides="1" tooltips="1" connect="1" arrows="1" fold="1" page="1" pageScale="1" pageWidth="850" pageHeight="1100" math="0" shadow="0">
      <root>
        <mxCell id="0" />
        <mxCell id="1" parent="0" />
        <mxCell id="mqqRqKOBbdbsrxCuwCVT-52" style="edgeStyle=orthogonalEdgeStyle;rounded=0;orthogonalLoop=1;jettySize=auto;html=1;entryX=1;entryY=0.5;entryDx=0;entryDy=0;strokeColor=#FF8000;" edge="1" parent="1" source="mqqRqKOBbdbsrxCuwCVT-2" target="mqqRqKOBbdbsrxCuwCVT-51">
          <mxGeometry relative="1" as="geometry" />
        </mxCell>
        <mxCell id="mqqRqKOBbdbsrxCuwCVT-2" value="" style="ellipse;html=1;shape=startState;fillColor=#000000;strokeColor=#FF8000;" vertex="1" parent="1">
          <mxGeometry x="425" y="105" width="30" height="30" as="geometry" />
        </mxCell>
        <mxCell id="mqqRqKOBbdbsrxCuwCVT-3" value="" style="edgeStyle=orthogonalEdgeStyle;html=1;verticalAlign=bottom;endArrow=open;endSize=8;strokeColor=#FF8000;rounded=0;" edge="1" source="mqqRqKOBbdbsrxCuwCVT-2" parent="1">
          <mxGeometry relative="1" as="geometry">
            <mxPoint x="440" y="195" as="targetPoint" />
          </mxGeometry>
        </mxCell>
        <mxCell id="mqqRqKOBbdbsrxCuwCVT-26" style="edgeStyle=orthogonalEdgeStyle;rounded=0;orthogonalLoop=1;jettySize=auto;html=1;strokeColor=#FF8000;" edge="1" parent="1" source="mqqRqKOBbdbsrxCuwCVT-4" target="mqqRqKOBbdbsrxCuwCVT-21">
          <mxGeometry relative="1" as="geometry" />
        </mxCell>
        <mxCell id="mqqRqKOBbdbsrxCuwCVT-34" style="edgeStyle=orthogonalEdgeStyle;rounded=0;orthogonalLoop=1;jettySize=auto;html=1;entryX=0;entryY=0.5;entryDx=0;entryDy=0;strokeColor=#FF8000;" edge="1" parent="1" source="mqqRqKOBbdbsrxCuwCVT-4" target="mqqRqKOBbdbsrxCuwCVT-33">
          <mxGeometry relative="1" as="geometry">
            <mxPoint x="650" y="224.0000000000001" as="targetPoint" />
          </mxGeometry>
        </mxCell>
        <mxCell id="mqqRqKOBbdbsrxCuwCVT-4" value="&lt;div&gt;View Feed&lt;/div&gt;" style="html=1;dashed=0;whiteSpace=wrap;strokeColor=#36393d;fillColor=#ffcc99;" vertex="1" parent="1">
          <mxGeometry x="390" y="200" width="100" height="50" as="geometry" />
        </mxCell>
        <mxCell id="mqqRqKOBbdbsrxCuwCVT-16" style="edgeStyle=orthogonalEdgeStyle;rounded=0;orthogonalLoop=1;jettySize=auto;html=1;entryX=0.026;entryY=0.131;entryDx=0;entryDy=0;exitX=1.003;exitY=0.131;exitDx=0;exitDy=0;exitPerimeter=0;entryPerimeter=0;strokeColor=#FF8000;" edge="1" parent="1" source="mqqRqKOBbdbsrxCuwCVT-5" target="mqqRqKOBbdbsrxCuwCVT-6">
          <mxGeometry relative="1" as="geometry" />
        </mxCell>
        <mxCell id="mqqRqKOBbdbsrxCuwCVT-5" value="Login" style="html=1;dashed=0;whiteSpace=wrap;strokeColor=#36393d;fillColor=#ffcc99;" vertex="1" parent="1">
          <mxGeometry x="770" y="199" width="100" height="50" as="geometry" />
        </mxCell>
        <mxCell id="mqqRqKOBbdbsrxCuwCVT-17" style="edgeStyle=orthogonalEdgeStyle;rounded=0;orthogonalLoop=1;jettySize=auto;html=1;entryX=0.998;entryY=0.831;entryDx=0;entryDy=0;exitX=0.003;exitY=0.831;exitDx=0;exitDy=0;entryPerimeter=0;exitPerimeter=0;strokeColor=#FF8000;" edge="1" parent="1" source="mqqRqKOBbdbsrxCuwCVT-6" target="mqqRqKOBbdbsrxCuwCVT-5">
          <mxGeometry relative="1" as="geometry" />
        </mxCell>
        <mxCell id="mqqRqKOBbdbsrxCuwCVT-6" value="&lt;div&gt;Register&lt;/div&gt;" style="html=1;dashed=0;whiteSpace=wrap;strokeColor=#36393d;fillColor=#ffcc99;" vertex="1" parent="1">
          <mxGeometry x="906" y="199" width="100" height="50" as="geometry" />
        </mxCell>
        <mxCell id="mqqRqKOBbdbsrxCuwCVT-12" value="View Stream" style="html=1;dashed=0;whiteSpace=wrap;strokeColor=#36393d;fillColor=#ffcc99;" vertex="1" parent="1">
          <mxGeometry x="460" y="377" width="100" height="50" as="geometry" />
        </mxCell>
        <mxCell id="mqqRqKOBbdbsrxCuwCVT-13" value="&lt;div&gt;View Video&lt;/div&gt;" style="html=1;dashed=0;whiteSpace=wrap;strokeColor=#36393d;fillColor=#ffcc99;" vertex="1" parent="1">
          <mxGeometry x="325" y="377" width="100" height="50" as="geometry" />
        </mxCell>
        <mxCell id="mqqRqKOBbdbsrxCuwCVT-21" value="" style="shape=line;html=1;strokeWidth=6;strokeColor=#FF8000;" vertex="1" parent="1">
          <mxGeometry x="340" y="320" width="200" height="10" as="geometry" />
        </mxCell>
        <mxCell id="mqqRqKOBbdbsrxCuwCVT-22" value="" style="edgeStyle=orthogonalEdgeStyle;html=1;verticalAlign=bottom;endArrow=open;endSize=8;strokeColor=#FF8000;rounded=0;entryX=0.5;entryY=0;entryDx=0;entryDy=0;exitX=0.175;exitY=1;exitDx=0;exitDy=0;exitPerimeter=0;" edge="1" source="mqqRqKOBbdbsrxCuwCVT-21" parent="1" target="mqqRqKOBbdbsrxCuwCVT-13">
          <mxGeometry relative="1" as="geometry">
            <mxPoint x="440" y="400" as="targetPoint" />
          </mxGeometry>
        </mxCell>
        <mxCell id="mqqRqKOBbdbsrxCuwCVT-24" value="" style="edgeStyle=orthogonalEdgeStyle;html=1;verticalAlign=bottom;endArrow=open;endSize=8;strokeColor=#FF8000;rounded=0;exitX=0.849;exitY=0.484;exitDx=0;exitDy=0;exitPerimeter=0;" edge="1" parent="1" source="mqqRqKOBbdbsrxCuwCVT-21" target="mqqRqKOBbdbsrxCuwCVT-12">
          <mxGeometry relative="1" as="geometry">
            <mxPoint x="510" y="350" as="targetPoint" />
            <mxPoint x="510" y="330" as="sourcePoint" />
          </mxGeometry>
        </mxCell>
        <mxCell id="mqqRqKOBbdbsrxCuwCVT-86" style="edgeStyle=orthogonalEdgeStyle;rounded=0;orthogonalLoop=1;jettySize=auto;html=1;entryX=0.5;entryY=0;entryDx=0;entryDy=0;exitX=0.621;exitY=0.969;exitDx=0;exitDy=0;exitPerimeter=0;strokeColor=#FF8000;" edge="1" parent="1" source="mqqRqKOBbdbsrxCuwCVT-33" target="mqqRqKOBbdbsrxCuwCVT-83">
          <mxGeometry relative="1" as="geometry">
            <Array as="points">
              <mxPoint x="700" y="248" />
            </Array>
          </mxGeometry>
        </mxCell>
        <mxCell id="mqqRqKOBbdbsrxCuwCVT-88" style="edgeStyle=orthogonalEdgeStyle;rounded=0;orthogonalLoop=1;jettySize=auto;html=1;entryX=0.5;entryY=1;entryDx=0;entryDy=0;strokeColor=#FF8000;" edge="1" parent="1" source="mqqRqKOBbdbsrxCuwCVT-33" target="mqqRqKOBbdbsrxCuwCVT-87">
          <mxGeometry relative="1" as="geometry" />
        </mxCell>
        <mxCell id="mqqRqKOBbdbsrxCuwCVT-33" value="&lt;div&gt;Profile&lt;/div&gt;" style="html=1;dashed=0;whiteSpace=wrap;strokeColor=#36393d;fillColor=#ffcc99;" vertex="1" parent="1">
          <mxGeometry x="640" y="200" width="100" height="50" as="geometry" />
        </mxCell>
        <mxCell id="mqqRqKOBbdbsrxCuwCVT-42" style="edgeStyle=orthogonalEdgeStyle;rounded=0;orthogonalLoop=1;jettySize=auto;html=1;entryX=0.5;entryY=0;entryDx=0;entryDy=0;strokeColor=#FF8000;" edge="1" parent="1" source="mqqRqKOBbdbsrxCuwCVT-35" target="mqqRqKOBbdbsrxCuwCVT-41">
          <mxGeometry relative="1" as="geometry" />
        </mxCell>
        <mxCell id="mqqRqKOBbdbsrxCuwCVT-35" value="" style="shape=line;html=1;strokeWidth=6;strokeColor=#FF8000;" vertex="1" parent="1">
          <mxGeometry x="600" y="361" width="200" height="10" as="geometry" />
        </mxCell>
        <mxCell id="mqqRqKOBbdbsrxCuwCVT-36" value="" style="edgeStyle=orthogonalEdgeStyle;html=1;verticalAlign=bottom;endArrow=open;endSize=8;strokeColor=#FF8000;rounded=0;entryX=0.452;entryY=0.019;entryDx=0;entryDy=0;exitX=0.175;exitY=1;exitDx=0;exitDy=0;exitPerimeter=0;entryPerimeter=0;" edge="1" parent="1" source="mqqRqKOBbdbsrxCuwCVT-35" target="mqqRqKOBbdbsrxCuwCVT-39">
          <mxGeometry relative="1" as="geometry">
            <mxPoint x="635" y="431" as="targetPoint" />
          </mxGeometry>
        </mxCell>
        <mxCell id="mqqRqKOBbdbsrxCuwCVT-37" value="" style="edgeStyle=orthogonalEdgeStyle;html=1;verticalAlign=bottom;endArrow=open;endSize=8;strokeColor=#FF8000;rounded=0;exitX=0.849;exitY=0.484;exitDx=0;exitDy=0;exitPerimeter=0;entryX=0.604;entryY=0.019;entryDx=0;entryDy=0;entryPerimeter=0;" edge="1" parent="1" source="mqqRqKOBbdbsrxCuwCVT-35" target="mqqRqKOBbdbsrxCuwCVT-40">
          <mxGeometry relative="1" as="geometry">
            <mxPoint x="770" y="431" as="targetPoint" />
            <mxPoint x="770" y="371" as="sourcePoint" />
          </mxGeometry>
        </mxCell>
        <mxCell id="mqqRqKOBbdbsrxCuwCVT-39" value="Upload" style="html=1;dashed=0;whiteSpace=wrap;strokeColor=#36393d;fillColor=#ffcc99;" vertex="1" parent="1">
          <mxGeometry x="590" y="463" width="100" height="50" as="geometry" />
        </mxCell>
        <mxCell id="mqqRqKOBbdbsrxCuwCVT-40" value="&lt;div&gt;Stream&lt;/div&gt;" style="html=1;dashed=0;whiteSpace=wrap;strokeColor=#36393d;fillColor=#ffcc99;" vertex="1" parent="1">
          <mxGeometry x="710" y="463" width="100" height="50" as="geometry" />
        </mxCell>
        <mxCell id="mqqRqKOBbdbsrxCuwCVT-41" value="&lt;div&gt;Settings&lt;/div&gt;" style="html=1;dashed=0;whiteSpace=wrap;strokeColor=#36393d;fillColor=#ffcc99;" vertex="1" parent="1">
          <mxGeometry x="650" y="393" width="100" height="50" as="geometry" />
        </mxCell>
        <mxCell id="mqqRqKOBbdbsrxCuwCVT-74" style="edgeStyle=orthogonalEdgeStyle;rounded=0;orthogonalLoop=1;jettySize=auto;html=1;exitX=0.2;exitY=0.681;exitDx=0;exitDy=0;exitPerimeter=0;strokeColor=#FF8000;" edge="1" parent="1" source="mqqRqKOBbdbsrxCuwCVT-43">
          <mxGeometry relative="1" as="geometry">
            <mxPoint x="640" y="571" as="targetPoint" />
          </mxGeometry>
        </mxCell>
        <mxCell id="mqqRqKOBbdbsrxCuwCVT-43" value="" style="shape=line;html=1;strokeWidth=6;strokeColor=#FF8000;" vertex="1" parent="1">
          <mxGeometry x="600" y="532" width="200" height="10" as="geometry" />
        </mxCell>
        <mxCell id="mqqRqKOBbdbsrxCuwCVT-45" style="edgeStyle=orthogonalEdgeStyle;rounded=0;orthogonalLoop=1;jettySize=auto;html=1;entryX=0.481;entryY=0.425;entryDx=0;entryDy=0;entryPerimeter=0;exitX=0.451;exitY=1.032;exitDx=0;exitDy=0;exitPerimeter=0;strokeColor=#FF8000;" edge="1" parent="1" target="mqqRqKOBbdbsrxCuwCVT-43">
          <mxGeometry relative="1" as="geometry">
            <mxPoint x="696.1" y="444.6" as="sourcePoint" />
            <mxPoint x="695.8" y="535.61" as="targetPoint" />
          </mxGeometry>
        </mxCell>
        <mxCell id="mqqRqKOBbdbsrxCuwCVT-46" value="&lt;div&gt;UpdateDetails&lt;/div&gt;" style="html=1;dashed=0;whiteSpace=wrap;strokeColor=#36393d;fillColor=#ffcc99;" vertex="1" parent="1">
          <mxGeometry x="590" y="572" width="100" height="50" as="geometry" />
        </mxCell>
        <mxCell id="mqqRqKOBbdbsrxCuwCVT-47" value="UpdatePassword" style="html=1;dashed=0;whiteSpace=wrap;strokeColor=#36393d;fillColor=#ffcc99;" vertex="1" parent="1">
          <mxGeometry x="710" y="572" width="100" height="50" as="geometry" />
        </mxCell>
        <mxCell id="mqqRqKOBbdbsrxCuwCVT-49" style="edgeStyle=orthogonalEdgeStyle;rounded=0;orthogonalLoop=1;jettySize=auto;html=1;entryX=0.5;entryY=0;entryDx=0;entryDy=0;strokeColor=#FF8000;" edge="1" parent="1" target="mqqRqKOBbdbsrxCuwCVT-47">
          <mxGeometry relative="1" as="geometry">
            <mxPoint x="760" y="539" as="sourcePoint" />
          </mxGeometry>
        </mxCell>
        <mxCell id="mqqRqKOBbdbsrxCuwCVT-51" value="Admin" style="html=1;dashed=0;whiteSpace=wrap;strokeColor=#36393d;fillColor=#ffcc99;" vertex="1" parent="1">
          <mxGeometry x="147" y="95" width="100" height="50" as="geometry" />
        </mxCell>
        <mxCell id="mqqRqKOBbdbsrxCuwCVT-53" value="" style="shape=line;html=1;strokeWidth=6;strokeColor=#FF8000;" vertex="1" parent="1">
          <mxGeometry x="97" y="184" width="200" height="10" as="geometry" />
        </mxCell>
        <mxCell id="mqqRqKOBbdbsrxCuwCVT-54" value="" style="edgeStyle=orthogonalEdgeStyle;html=1;verticalAlign=bottom;endArrow=open;endSize=8;strokeColor=#FF8000;rounded=0;entryX=0.5;entryY=0;entryDx=0;entryDy=0;exitX=0.151;exitY=0.389;exitDx=0;exitDy=0;exitPerimeter=0;" edge="1" source="mqqRqKOBbdbsrxCuwCVT-53" parent="1" target="mqqRqKOBbdbsrxCuwCVT-57">
          <mxGeometry relative="1" as="geometry">
            <mxPoint x="197" y="264" as="targetPoint" />
          </mxGeometry>
        </mxCell>
        <mxCell id="mqqRqKOBbdbsrxCuwCVT-55" style="edgeStyle=orthogonalEdgeStyle;rounded=0;orthogonalLoop=1;jettySize=auto;html=1;entryX=0.498;entryY=0.289;entryDx=0;entryDy=0;entryPerimeter=0;strokeColor=#FF8000;" edge="1" parent="1" source="mqqRqKOBbdbsrxCuwCVT-51" target="mqqRqKOBbdbsrxCuwCVT-53">
          <mxGeometry relative="1" as="geometry" />
        </mxCell>
        <mxCell id="mqqRqKOBbdbsrxCuwCVT-56" value="ManageVideos" style="html=1;dashed=0;whiteSpace=wrap;strokeColor=#36393d;fillColor=#ffcc99;" vertex="1" parent="1">
          <mxGeometry x="212" y="230" width="100" height="50" as="geometry" />
        </mxCell>
        <mxCell id="mqqRqKOBbdbsrxCuwCVT-57" value="ManageUsers" style="html=1;dashed=0;whiteSpace=wrap;strokeColor=#36393d;fillColor=#ffcc99;" vertex="1" parent="1">
          <mxGeometry x="77" y="230" width="100" height="50" as="geometry" />
        </mxCell>
        <mxCell id="mqqRqKOBbdbsrxCuwCVT-58" style="edgeStyle=orthogonalEdgeStyle;rounded=0;orthogonalLoop=1;jettySize=auto;html=1;entryX=0.551;entryY=-0.042;entryDx=0;entryDy=0;entryPerimeter=0;exitX=0.848;exitY=0.705;exitDx=0;exitDy=0;exitPerimeter=0;strokeColor=#FF8000;" edge="1" parent="1" source="mqqRqKOBbdbsrxCuwCVT-53" target="mqqRqKOBbdbsrxCuwCVT-56">
          <mxGeometry relative="1" as="geometry" />
        </mxCell>
        <mxCell id="mqqRqKOBbdbsrxCuwCVT-61" style="edgeStyle=orthogonalEdgeStyle;rounded=0;orthogonalLoop=1;jettySize=auto;html=1;entryX=0.13;entryY=0.355;entryDx=0;entryDy=0;entryPerimeter=0;strokeColor=#FF8000;" edge="1" parent="1" source="mqqRqKOBbdbsrxCuwCVT-56" target="mqqRqKOBbdbsrxCuwCVT-21">
          <mxGeometry relative="1" as="geometry" />
        </mxCell>
        <mxCell id="mqqRqKOBbdbsrxCuwCVT-72" style="edgeStyle=orthogonalEdgeStyle;rounded=0;orthogonalLoop=1;jettySize=auto;html=1;strokeColor=#FF8000;" edge="1" parent="1" source="mqqRqKOBbdbsrxCuwCVT-62" target="mqqRqKOBbdbsrxCuwCVT-66">
          <mxGeometry relative="1" as="geometry" />
        </mxCell>
        <mxCell id="mqqRqKOBbdbsrxCuwCVT-62" value="" style="shape=line;html=1;strokeWidth=6;strokeColor=#FF8000;" vertex="1" parent="1">
          <mxGeometry x="340" y="470" width="200" height="10" as="geometry" />
        </mxCell>
        <mxCell id="mqqRqKOBbdbsrxCuwCVT-64" style="edgeStyle=orthogonalEdgeStyle;rounded=0;orthogonalLoop=1;jettySize=auto;html=1;entryX=0.171;entryY=0.718;entryDx=0;entryDy=0;entryPerimeter=0;strokeColor=#FF8000;" edge="1" parent="1" source="mqqRqKOBbdbsrxCuwCVT-13" target="mqqRqKOBbdbsrxCuwCVT-62">
          <mxGeometry relative="1" as="geometry" />
        </mxCell>
        <mxCell id="mqqRqKOBbdbsrxCuwCVT-65" style="edgeStyle=orthogonalEdgeStyle;rounded=0;orthogonalLoop=1;jettySize=auto;html=1;entryX=0.853;entryY=0.536;entryDx=0;entryDy=0;entryPerimeter=0;strokeColor=#FF8000;" edge="1" parent="1" source="mqqRqKOBbdbsrxCuwCVT-12" target="mqqRqKOBbdbsrxCuwCVT-62">
          <mxGeometry relative="1" as="geometry" />
        </mxCell>
        <mxCell id="mqqRqKOBbdbsrxCuwCVT-95" style="edgeStyle=orthogonalEdgeStyle;rounded=0;orthogonalLoop=1;jettySize=auto;html=1;entryX=1;entryY=1;entryDx=0;entryDy=0;strokeColor=#FF8000;" edge="1" parent="1" source="mqqRqKOBbdbsrxCuwCVT-66" target="mqqRqKOBbdbsrxCuwCVT-56">
          <mxGeometry relative="1" as="geometry" />
        </mxCell>
        <mxCell id="mqqRqKOBbdbsrxCuwCVT-66" value="Admin" style="rhombus;whiteSpace=wrap;html=1;fillColor=#ffcc99;strokeColor=#36393d;" vertex="1" parent="1">
          <mxGeometry x="400" y="519" width="80" height="40" as="geometry" />
        </mxCell>
        <mxCell id="mqqRqKOBbdbsrxCuwCVT-67" value="no" style="edgeStyle=orthogonalEdgeStyle;html=1;align=left;verticalAlign=bottom;endArrow=open;endSize=8;strokeColor=#FF8000;rounded=0;entryX=1;entryY=0.75;entryDx=0;entryDy=0;exitX=1;exitY=0.5;exitDx=0;exitDy=0;" edge="1" parent="1">
          <mxGeometry x="-1" relative="1" as="geometry">
            <mxPoint x="490" y="237.49999999999994" as="targetPoint" />
            <mxPoint x="480" y="538.9999999999999" as="sourcePoint" />
            <Array as="points">
              <mxPoint x="570" y="540" />
              <mxPoint x="570" y="238" />
            </Array>
          </mxGeometry>
        </mxCell>
        <mxCell id="mqqRqKOBbdbsrxCuwCVT-71" value="yes" style="text;html=1;align=center;verticalAlign=middle;resizable=0;points=[];autosize=1;strokeColor=none;fillColor=none;" vertex="1" parent="1">
          <mxGeometry x="368" y="515" width="40" height="30" as="geometry" />
        </mxCell>
        <mxCell id="mqqRqKOBbdbsrxCuwCVT-77" value="" style="shape=line;html=1;strokeWidth=6;strokeColor=#FF8000;" vertex="1" parent="1">
          <mxGeometry x="600" y="653" width="200" height="10" as="geometry" />
        </mxCell>
        <mxCell id="mqqRqKOBbdbsrxCuwCVT-80" style="edgeStyle=orthogonalEdgeStyle;rounded=0;orthogonalLoop=1;jettySize=auto;html=1;entryX=0.203;entryY=0.6;entryDx=0;entryDy=0;entryPerimeter=0;strokeColor=#FF8000;" edge="1" parent="1" source="mqqRqKOBbdbsrxCuwCVT-46" target="mqqRqKOBbdbsrxCuwCVT-77">
          <mxGeometry relative="1" as="geometry" />
        </mxCell>
        <mxCell id="mqqRqKOBbdbsrxCuwCVT-81" style="edgeStyle=orthogonalEdgeStyle;rounded=0;orthogonalLoop=1;jettySize=auto;html=1;entryX=0.797;entryY=0.539;entryDx=0;entryDy=0;entryPerimeter=0;strokeColor=#FF8000;" edge="1" parent="1" source="mqqRqKOBbdbsrxCuwCVT-47" target="mqqRqKOBbdbsrxCuwCVT-77">
          <mxGeometry relative="1" as="geometry" />
        </mxCell>
        <mxCell id="mqqRqKOBbdbsrxCuwCVT-82" style="edgeStyle=orthogonalEdgeStyle;rounded=0;orthogonalLoop=1;jettySize=auto;html=1;entryX=0.5;entryY=1;entryDx=0;entryDy=0;exitX=0.52;exitY=0.908;exitDx=0;exitDy=0;exitPerimeter=0;strokeColor=#FF8000;" edge="1" parent="1" source="mqqRqKOBbdbsrxCuwCVT-77">
          <mxGeometry relative="1" as="geometry">
            <mxPoint x="804" y="658" as="sourcePoint" />
            <mxPoint x="704" y="443" as="targetPoint" />
            <Array as="points">
              <mxPoint x="704" y="683" />
              <mxPoint x="834" y="683" />
              <mxPoint x="834" y="523" />
              <mxPoint x="704" y="523" />
            </Array>
          </mxGeometry>
        </mxCell>
        <mxCell id="mqqRqKOBbdbsrxCuwCVT-83" value="Logged In?" style="rhombus;whiteSpace=wrap;html=1;fillColor=#ffcc99;strokeColor=#36393d;" vertex="1" parent="1">
          <mxGeometry x="660" y="280" width="80" height="40" as="geometry" />
        </mxCell>
        <mxCell id="mqqRqKOBbdbsrxCuwCVT-84" value="no" style="edgeStyle=orthogonalEdgeStyle;html=1;align=left;verticalAlign=bottom;endArrow=open;endSize=8;strokeColor=#FF8000;rounded=0;" edge="1" source="mqqRqKOBbdbsrxCuwCVT-83" parent="1">
          <mxGeometry x="-1" relative="1" as="geometry">
            <mxPoint x="820" y="250" as="targetPoint" />
          </mxGeometry>
        </mxCell>
        <mxCell id="mqqRqKOBbdbsrxCuwCVT-85" value="yes" style="edgeStyle=orthogonalEdgeStyle;html=1;align=left;verticalAlign=top;endArrow=open;endSize=8;strokeColor=#FF8000;rounded=0;entryX=0.501;entryY=0.391;entryDx=0;entryDy=0;entryPerimeter=0;" edge="1" source="mqqRqKOBbdbsrxCuwCVT-83" parent="1" target="mqqRqKOBbdbsrxCuwCVT-35">
          <mxGeometry x="-1" relative="1" as="geometry">
            <mxPoint x="690" y="380" as="targetPoint" />
          </mxGeometry>
        </mxCell>
        <mxCell id="mqqRqKOBbdbsrxCuwCVT-90" style="edgeStyle=orthogonalEdgeStyle;rounded=0;orthogonalLoop=1;jettySize=auto;html=1;entryX=0;entryY=0.5;entryDx=0;entryDy=0;strokeColor=#FF8000;" edge="1" parent="1" source="mqqRqKOBbdbsrxCuwCVT-87" target="mqqRqKOBbdbsrxCuwCVT-89">
          <mxGeometry relative="1" as="geometry" />
        </mxCell>
        <mxCell id="mqqRqKOBbdbsrxCuwCVT-87" value="Logout" style="html=1;dashed=0;whiteSpace=wrap;strokeColor=#36393d;fillColor=#ffcc99;" vertex="1" parent="1">
          <mxGeometry x="640" y="120" width="100" height="50" as="geometry" />
        </mxCell>
        <mxCell id="mqqRqKOBbdbsrxCuwCVT-89" value="" style="ellipse;html=1;shape=endState;fillColor=#000000;strokeColor=#FF8000;" vertex="1" parent="1">
          <mxGeometry x="805" y="130" width="30" height="30" as="geometry" />
        </mxCell>
        <mxCell id="mqqRqKOBbdbsrxCuwCVT-91" value="" style="shape=line;html=1;strokeWidth=6;strokeColor=#FF8000;" vertex="1" parent="1">
          <mxGeometry x="97" y="313" width="200" height="10" as="geometry" />
        </mxCell>
        <mxCell id="mqqRqKOBbdbsrxCuwCVT-92" value="" style="edgeStyle=orthogonalEdgeStyle;html=1;verticalAlign=bottom;endArrow=open;endSize=8;strokeColor=#FF8000;rounded=0;entryX=0;entryY=0.5;entryDx=0;entryDy=0;" edge="1" source="mqqRqKOBbdbsrxCuwCVT-91" parent="1" target="mqqRqKOBbdbsrxCuwCVT-51">
          <mxGeometry relative="1" as="geometry">
            <mxPoint x="197" y="393" as="targetPoint" />
            <Array as="points">
              <mxPoint x="197" y="340" />
              <mxPoint x="60" y="340" />
              <mxPoint x="60" y="120" />
            </Array>
          </mxGeometry>
        </mxCell>
        <mxCell id="mqqRqKOBbdbsrxCuwCVT-93" style="edgeStyle=orthogonalEdgeStyle;rounded=0;orthogonalLoop=1;jettySize=auto;html=1;entryX=0.15;entryY=0.425;entryDx=0;entryDy=0;entryPerimeter=0;strokeColor=#FF8000;" edge="1" parent="1" source="mqqRqKOBbdbsrxCuwCVT-57" target="mqqRqKOBbdbsrxCuwCVT-91">
          <mxGeometry relative="1" as="geometry" />
        </mxCell>
        <mxCell id="mqqRqKOBbdbsrxCuwCVT-94" style="edgeStyle=orthogonalEdgeStyle;rounded=0;orthogonalLoop=1;jettySize=auto;html=1;entryX=0.826;entryY=0.445;entryDx=0;entryDy=0;entryPerimeter=0;strokeColor=#FF8000;" edge="1" parent="1" source="mqqRqKOBbdbsrxCuwCVT-56" target="mqqRqKOBbdbsrxCuwCVT-91">
          <mxGeometry relative="1" as="geometry" />
        </mxCell>
      </root>
    </mxGraphModel>
  </diagram>
</mxfile>
